# Blender v2.79 (sub 0) OBJ File: ''
# www.blender.org
mtllib Cometobj.mtl
o Icosphere
v 0.180326 -1.084517 0.121764
v 0.936650 -0.349279 0.683038
v -0.097163 -0.326445 0.987714
v -0.747854 -0.343979 0.133291
v -0.096063 -0.324790 -0.716973
v 0.903934 -0.324790 -0.392049
v 0.456714 0.569650 0.984326
v -0.545389 0.571259 0.660932
v -0.543563 0.569865 -0.392253
v 0.456714 0.569650 -0.716973
v 1.091081 0.577017 0.133882
v 0.180326 1.460465 0.206988
v -0.015486 -0.883629 0.733269
v 0.702074 -0.885852 0.497992
v 0.468353 -0.441714 1.020756
v 1.075042 -0.427710 0.133022
v 0.679205 -0.841686 -0.229269
v -0.438518 -0.843742 0.125734
v -0.567308 -0.442168 0.675926
v 0.005808 -0.807098 -0.418525
v -0.510712 -0.405482 -0.368390
v 0.443194 -0.403308 -0.675335
v 1.131700 0.122430 0.442792
v 1.131383 0.122430 -0.175336
v 0.180326 0.122430 1.133677
v 0.768111 0.122430 0.942693
v -0.771049 0.122430 0.442792
v -0.407460 0.122430 0.942693
v -0.407460 0.122430 -0.675340
v -0.770732 0.122430 -0.175336
v 0.768111 0.122430 -0.675340
v 0.180326 0.122430 -0.866323
v 0.883739 0.659637 0.644720
v -0.082543 0.648168 0.942688
v -0.735174 0.677018 0.134603
v -0.082543 0.648168 -0.675335
v 0.882616 0.658938 -0.376565
v 0.383610 1.173118 0.765787
v 0.803778 1.119163 0.129042
v -0.340237 1.113622 0.505893
v -0.370723 1.190075 -0.266449
v 0.398093 1.247831 -0.530753
v 0.503437 0.947431 0.141797
v 0.281968 0.998520 0.460909
v -0.085310 0.954700 0.335045
v -0.102120 0.988979 -0.061797
v 0.289491 1.034016 -0.188419
v 0.600935 1.183497 -0.200856
v 0.013685 1.218953 -0.398601
v -0.355480 1.151848 0.119722
v 0.021687 1.143370 0.635840
v 0.593694 1.146140 0.447414
vt 0.900237 0.127348
vt 0.853752 0.000301
vt 0.765283 0.132197
vt 0.454628 0.625365
vt 0.433724 0.507838
vt 0.547665 0.554673
vt 0.864219 0.252420
vt 0.999699 0.193427
vt 0.999699 0.046315
vt 0.547039 0.687456
vt 0.315993 0.099103
vt 0.339867 0.218114
vt 0.221407 0.157171
vt 0.124187 0.415868
vt 0.010226 0.437400
vt 0.098483 0.530753
vt 0.523742 0.112519
vt 0.436187 0.097441
vt 0.460303 0.207973
vt 0.734007 0.107962
vt 0.636771 0.093552
vt 0.707486 0.202616
vt 0.455185 0.738608
vt 0.221790 0.033551
vt 0.219886 0.484258
vt 0.583894 0.205294
vt 0.654675 0.519856
vt 0.752490 0.573043
vt 0.660617 0.624206
vt 0.127171 0.215007
vt 0.107967 0.304758
vt 0.000301 0.199240
vt 0.127485 0.004250
vt 0.111009 0.101543
vt 0.013285 0.047043
vt 0.296145 0.555819
vt 0.200728 0.616495
vt 0.318088 0.687094
vt 0.644047 0.298070
vt 0.531018 0.317037
vt 0.634812 0.440935
vt 0.650316 0.739375
vt 0.752490 0.702195
vt 0.706680 0.838495
vt 0.098214 0.730774
vt 0.177697 0.748561
vt 0.116213 0.791381
vt 0.257780 0.797476
vt 0.385166 0.730774
vt 0.385166 0.858802
vt 0.321473 0.828139
vt 0.734007 0.314903
vt 0.257179 0.766348
vt 0.257179 0.851839
vt 0.196518 0.811355
vt 0.871282 0.441536
vt 0.753091 0.551785
vt 0.871282 0.603685
vt 0.871282 0.522611
vt 0.433724 0.302673
vt 0.472893 0.432294
vt 0.257179 0.937330
vt 0.179331 0.960702
vt 0.198111 0.897900
vt 0.417759 0.317144
vt 0.318689 0.411711
vt 0.417759 0.480374
vt 0.417759 0.398759
vt 0.089400 0.635313
vt 0.160647 0.730173
vt 0.101484 0.984075
vt 0.050892 0.920977
vt 0.118033 0.921691
vt 0.873855 0.295756
vt 0.873855 0.407649
vt 0.734608 0.358546
vt 0.804231 0.327151
vt 0.000301 0.857879
vt 0.049257 0.794327
vt 0.067887 0.857249
vt 0.318689 0.533811
vt 0.416255 0.480975
vt 0.416255 0.626243
vt 0.367472 0.580027
vt 0.564906 0.806827
vt 0.221024 0.280790
vt 0.318088 0.446648
vt 0.218093 0.366053
vt 0.000301 0.568356
vt 0.340637 0.000301
vt 0.320122 0.316543
vt 0.684399 0.000301
vt 0.542964 0.010642
vt 0.960157 0.295155
vt 0.088079 0.317144
vt 0.745493 0.247188
vt 0.433123 0.116644
vt 0.571874 0.441536
vt 0.734608 0.017875
vt 0.433123 0.267559
vt 0.753091 0.691664
vt 0.795000 0.638153
vt 0.858308 0.726596
vt 0.893870 0.847346
vt 0.829770 0.803270
vt 0.893870 0.727197
vt 0.829169 0.727197
vt 0.753091 0.762269
vt 0.829169 0.841339
vt 0.858909 0.669427
vt 0.924695 0.719878
vt 0.924695 0.604286
vt 0.858308 0.604286
vn 0.1091 -0.9335 0.3416
vn 0.8414 -0.4636 0.2778
vn -0.3551 -0.9159 0.1872
vn -0.3430 -0.8760 -0.3390
vn 0.0893 -0.8740 -0.4776
vn 0.9306 -0.2476 0.2695
vn -0.1067 -0.2472 0.9631
vn -0.9358 -0.2260 0.2705
vn -0.5701 -0.3268 -0.7538
vn 0.5346 -0.3304 -0.7779
vn 0.8082 -0.0348 0.5878
vn -0.3069 -0.1174 0.9445
vn -0.9988 -0.0493 -0.0005
vn -0.3066 -0.1256 -0.9435
vn 0.8026 -0.1256 -0.5831
vn 0.5391 0.3438 0.7689
vn -0.5229 0.4112 0.7467
vn -0.8680 0.3191 -0.3806
vn -0.0364 0.2617 -0.9645
vn 0.8504 0.4482 -0.2754
vn -0.4362 0.7942 0.4231
vn 0.7635 0.5324 -0.3656
vn 0.5681 0.2632 -0.7798
vn 0.1288 0.8222 0.5544
vn -0.3197 0.4565 -0.8303
vn -0.5352 0.3087 -0.7863
vn 0.5692 0.8201 0.0587
vn -0.7763 0.6236 0.0924
vn -0.8233 0.4204 0.3813
vn 0.1340 0.8174 -0.5603
vn -0.3224 0.5467 0.7728
vn -0.0235 0.3379 0.9409
vn -0.4139 0.8426 -0.3445
vn 0.6994 0.5841 0.4120
vn 0.8494 0.4525 0.2716
vn 0.8997 0.2972 -0.3197
vn 0.7995 0.1528 -0.5809
vn 0.5522 0.3126 -0.7729
vn -0.0247 0.3304 -0.9435
vn -0.3035 0.1876 -0.9342
vn -0.5340 0.3300 -0.7784
vn -0.8868 0.2675 -0.3769
vn -0.9979 0.0643 -0.0005
vn -0.8888 0.2652 0.3738
vn -0.5304 0.3278 0.7818
vn -0.3035 0.1876 0.9342
vn -0.0247 0.3304 0.9435
vn 0.5505 0.3112 0.7747
vn 0.7995 0.1505 0.5815
vn 0.9007 0.2963 0.3177
vn 0.3066 0.1256 -0.9435
vn 0.3035 -0.1876 -0.9342
vn 0.0247 -0.3304 -0.9435
vn -0.8027 0.1248 -0.5832
vn -0.7957 -0.1805 -0.5781
vn -0.8776 -0.2937 -0.3788
vn -0.8029 0.1199 0.5840
vn -0.8077 -0.0489 0.5875
vn -0.4900 -0.2551 0.8336
vn 0.3066 0.1256 0.9435
vn 0.3089 -0.0326 0.9506
vn 0.5988 -0.2113 0.7725
vn 0.9961 0.0887 -0.0005
vn 0.9948 -0.1022 -0.0005
vn 0.8931 -0.2860 -0.3471
vn 0.5215 -0.4542 -0.7223
vn 0.1730 -0.6552 -0.7354
vn -0.0113 -0.5279 -0.8492
vn -0.4816 -0.5325 -0.6961
vn -0.5607 -0.6584 -0.5021
vn -0.8075 -0.4949 -0.3210
vn -0.8346 -0.5194 0.1837
vn -0.6028 -0.7050 0.3735
vn -0.4245 -0.4269 0.7985
vn 0.8111 -0.4646 -0.3554
vn 0.7485 -0.6600 -0.0636
vn 0.3975 -0.9151 -0.0681
vn -0.1394 -0.4282 0.8929
vn 0.2232 -0.6914 0.6872
vn 0.5735 -0.4797 0.6640
vn 0.7733 0.4275 0.4682
vn -0.4046 0.8167 -0.4115
vn -0.4715 0.7965 -0.3786
vn -0.3397 0.3946 0.8538
vn 0.0903 0.8289 -0.5520
vn 0.1184 0.8441 -0.5229
vn -0.8743 0.4790 0.0784
vn 0.5639 0.8245 0.0473
vn 0.5567 0.8285 0.0600
vn -0.3073 0.6035 -0.7357
vn 0.0960 0.8064 0.5836
vn 0.1436 0.7936 0.5913
vn 0.7685 0.5296 -0.3590
vn -0.3710 0.8107 0.4529
vn -0.3839 0.8330 0.3985
usemtl Material.001
s off
f 1/1/1 14/2/1 13/3/1
f 2/4/2 14/5/2 16/6/2
f 1/1/3 13/3/3 18/7/3
f 1/1/4 18/7/4 20/8/4
f 1/1/5 20/8/5 17/9/5
f 2/4/6 16/6/6 23/10/6
f 3/11/7 15/12/7 25/13/7
f 4/14/8 19/15/8 27/16/8
f 5/17/9 21/18/9 29/19/9
f 6/20/10 22/21/10 31/22/10
f 2/4/11 23/10/11 26/23/11
f 3/11/12 25/13/12 28/24/12
f 4/14/13 27/16/13 30/25/13
f 5/17/14 29/19/14 32/26/14
f 6/27/15 31/28/15 24/29/15
f 7/30/16 33/31/16 38/32/16
f 8/33/17 34/34/17 40/35/17
f 9/36/18 35/37/18 41/38/18
f 10/39/19 36/40/19 42/41/19
f 11/42/20 37/43/20 39/44/20
f 39/45/21 48/46/21 43/47/21
f 39/48/22 37/49/22 42/50/22 48/51/22
f 37/52/23 10/39/23 42/41/23
f 42/53/24 49/54/24 47/55/24
f 42/56/25 36/57/25 41/58/25 49/59/25
f 36/40/26 9/60/26 41/61/26
f 41/62/27 50/63/27 46/64/27
f 41/65/28 35/66/28 40/67/28 50/68/28
f 35/37/29 8/69/29 40/70/29
f 40/71/30 51/72/30 45/73/30
f 40/74/31 34/75/31 38/76/31 51/77/31
f 34/34/32 7/30/32 38/32/32
f 38/78/33 52/79/33 44/80/33
f 38/81/34 33/82/34 39/83/34 52/84/34
f 33/85/35 11/42/35 39/44/35
f 24/29/36 37/43/36 11/42/36
f 24/29/37 31/28/37 37/43/37
f 31/22/38 10/39/38 37/52/38
f 32/26/39 36/40/39 10/39/39
f 32/26/40 29/19/40 36/40/40
f 29/19/41 9/60/41 36/40/41
f 30/25/42 35/37/42 9/36/42
f 30/25/43 27/16/43 35/37/43
f 27/16/44 8/69/44 35/37/44
f 28/24/45 34/34/45 8/33/45
f 28/24/46 25/13/46 34/34/46
f 25/13/47 7/30/47 34/34/47
f 26/86/48 33/31/48 7/30/48
f 26/23/49 23/10/49 33/85/49
f 23/10/50 11/42/50 33/85/50
f 31/22/51 32/26/51 10/39/51
f 31/22/52 22/21/52 32/26/52
f 22/21/53 5/17/53 32/26/53
f 29/87/54 30/25/54 9/36/54
f 29/87/55 21/88/55 30/25/55
f 21/88/56 4/14/56 30/25/56
f 27/16/57 28/89/57 8/69/57
f 27/16/58 19/15/58 28/89/58
f 19/90/59 3/11/59 28/24/59
f 25/13/60 26/86/60 7/30/60
f 25/13/61 15/12/61 26/86/61
f 15/12/62 2/91/62 26/86/62
f 23/10/63 24/29/63 11/42/63
f 23/10/64 16/6/64 24/29/64
f 16/6/65 6/27/65 24/29/65
f 17/92/66 22/21/66 6/20/66
f 17/92/67 20/93/67 22/21/67
f 20/93/68 5/17/68 22/21/68
f 20/93/69 21/18/69 5/17/69
f 20/8/70 18/7/70 21/94/70
f 18/95/71 4/14/71 21/88/71
f 18/95/72 19/15/72 4/14/72
f 18/7/73 13/3/73 19/96/73
f 13/97/74 3/11/74 19/90/74
f 16/6/75 17/98/75 6/27/75
f 16/6/76 14/5/76 17/98/76
f 14/2/77 1/1/77 17/9/77
f 13/97/78 15/12/78 3/11/78
f 13/3/79 14/2/79 15/99/79
f 14/100/80 2/91/80 15/12/80
f 44/101/81 43/102/81 12/103/81
f 44/80/82 52/79/82 43/47/82
f 52/79/83 39/45/83 43/47/83
f 45/104/84 44/105/84 12/106/84
f 45/73/85 51/72/85 44/80/85
f 51/72/86 38/78/86 44/80/86
f 46/107/87 45/108/87 12/109/87
f 46/64/88 50/63/88 45/73/88
f 50/63/89 40/71/89 45/73/89
f 47/110/90 46/111/90 12/112/90
f 47/55/91 49/54/91 46/64/91
f 49/54/92 41/62/92 46/64/92
f 43/102/93 47/113/93 12/103/93
f 43/47/94 48/46/94 47/55/94
f 48/46/95 42/53/95 47/55/95
